<svg width="183" height="159" viewBox="0 0 183 159" fill="none" xmlns="http://www.w3.org/2000/svg">
<path d="M11.4419 124.633C23.5967 124.633 33.5415 134.15 34.2187 146.162C28.0166 145.52 21.458 144.166 14.3291 141.885C12.939 141.457 11.4419 139.817 11.4419 137.322V124.633ZM11.4419 113.227V61.8984C29.1572 61.8984 43.7358 48.4248 45.4824 31.1728C64.6592 31.1372 80.5923 25.8261 95.3491 20.9072L96.8818 20.4082C110.213 15.9526 122.724 11.9604 136.946 11.4614C137.41 29.9609 152.559 44.789 171.165 44.789V96.1171C153.45 96.1171 138.871 109.591 137.125 126.843C117.948 126.878 102.015 132.189 87.2578 137.144L85.7251 137.643C72.394 142.099 59.8828 146.091 45.6606 146.554C45.1973 128.055 30.0483 113.227 11.4419 113.227ZM169.312 131.69C161.969 129.48 155.054 128.126 148.495 127.449C149.921 116.221 159.509 107.559 171.129 107.559V131.263C171.094 131.298 171.022 131.37 170.88 131.477C170.452 131.762 169.846 131.869 169.312 131.726V131.69ZM171.129 20.6933V33.3828C158.975 33.3828 149.03 23.8657 148.353 11.8535C154.555 12.4951 161.113 13.8496 168.242 16.1308C169.632 16.5585 171.129 18.1982 171.129 20.6933ZM11.4419 50.4921V26.7885C11.4775 26.7529 11.5488 26.6816 11.6914 26.5747C12.1191 26.2895 12.7251 26.1826 13.2598 26.3251C20.6025 28.5351 27.5176 29.8896 34.0762 30.5668C32.6504 41.7949 23.062 50.4565 11.4419 50.4565V50.4921ZM0.035644 26.7885V137.322C0.035644 144.237 4.2417 150.618 10.8359 152.756C44.3418 163.45 67.4395 155.75 90.4302 148.087C112.672 140.673 134.772 133.294 166.032 142.633C173.945 144.986 182.5 139.497 182.5 131.227V20.6933C182.5 13.7783 178.294 7.3979 171.7 5.25923C138.194 -5.43413 115.096 2.26509 92.1055 9.92866C69.8633 17.3427 47.7637 24.7211 16.5034 15.3823C8.59033 13.0297 0 18.519 0 26.7885H0.035644ZM75.6377 56.2666C79.9507 50.6347 85.5469 47.6406 91.2856 47.6406C97.0244 47.6406 102.621 50.6347 106.934 56.2666C111.247 61.8984 114.098 69.9184 114.098 79.0078C114.098 88.0971 111.247 96.1171 106.934 101.749C102.621 107.381 97.0244 110.375 91.2856 110.375C85.5469 110.375 79.9507 107.381 75.6377 101.749C71.3247 96.1171 68.4731 88.0971 68.4731 79.0078C68.4731 69.9184 71.3247 61.8984 75.6377 56.2666ZM66.584 49.3159C60.5957 57.122 57.0669 67.6372 57.0669 79.0078C57.0669 90.3784 60.5957 100.894 66.584 108.7C72.6079 116.506 81.2695 121.781 91.2856 121.781C101.302 121.781 109.963 116.506 115.987 108.7C121.976 100.894 125.504 90.3784 125.504 79.0078C125.504 67.6372 121.976 57.122 115.987 49.3159C109.963 41.5097 101.302 36.2343 91.2856 36.2343C81.2695 36.2343 72.6079 41.5097 66.584 49.3159ZM85.5825 61.8984C82.4458 61.8984 79.8794 64.4648 79.8794 67.6015C79.8794 70.7382 82.4458 73.3046 85.5825 73.3046V84.7109C82.4458 84.7109 79.8794 87.2773 79.8794 90.414C79.8794 93.5507 82.4458 96.1171 85.5825 96.1171H96.9888C100.125 96.1171 102.692 93.5507 102.692 90.414C102.692 87.2773 100.125 84.7109 96.9888 84.7109V67.6015C96.9888 64.4648 94.4224 61.8984 91.2856 61.8984H85.5825Z" fill="#EDE8FF"/>
</svg>
