<svg width="183" height="146" viewBox="0 0 183 146" fill="none" xmlns="http://www.w3.org/2000/svg">
<path d="M139.213 0.0570304C163.338 1.2832 182.5 21.2156 182.5 45.625V109.5L182.414 111.354C181.53 119.937 174.715 126.78 166.132 127.636L164.279 127.721H162.682C158.918 138.358 148.823 145.971 136.904 145.971C124.984 145.971 114.861 138.358 111.125 127.721H71.4602C67.6961 138.358 57.573 145.971 45.682 145.971C33.791 145.971 23.668 138.358 19.9039 127.721H18.307L16.4535 127.636C7.87031 126.752 1.02656 119.937 0.171094 111.354L0 109.5V27.375C0 12.718 11.4918 0.769921 25.9777 0.0285152L27.375 0H136.875L139.213 0.0570304ZM45.625 100.375C35.559 100.375 27.375 108.559 27.375 118.625C27.375 128.691 35.559 136.875 45.625 136.875C55.691 136.875 63.875 128.691 63.875 118.625C63.875 108.559 55.691 100.375 45.625 100.375ZM136.875 100.375C126.809 100.375 118.625 108.559 118.625 118.625C118.625 128.691 126.809 136.875 136.875 136.875C146.941 136.875 155.125 128.691 155.125 118.625C155.125 108.559 146.941 100.375 136.875 100.375ZM9.125 63.875V109.5C9.125 114.547 13.2027 118.625 18.25 118.625C18.25 103.512 30.5117 91.25 45.625 91.25C60.7383 91.25 73 103.512 73 118.625H109.5C109.5 106.705 117.114 96.5824 127.75 92.8469V63.875H9.125ZM136.875 91.25C151.988 91.25 164.25 103.512 164.25 118.625C169.297 118.625 173.375 114.547 173.375 109.5V45.625C173.375 25.4645 157.036 9.125 136.875 9.125V91.25ZM73 54.75H127.75V9.125H73V54.75ZM27.375 9.125C17.309 9.125 9.125 17.309 9.125 27.375V54.75H63.875V9.125H27.375Z" fill="#EDE8FF"/>
</svg>
