<svg width="171" height="183" viewBox="0 0 171 183" fill="none" xmlns="http://www.w3.org/2000/svg">
<path d="M42.5833 0C45.9292 0 48.6667 2.7375 48.6667 6.08333V24.3333H121.667V6.08333C121.667 2.7375 124.404 0 127.75 0C131.096 0 133.833 2.7375 133.833 6.08333V24.3333H146C159.421 24.3333 170.333 35.2453 170.333 48.6667V158.167C170.333 171.588 159.421 182.5 146 182.5H24.3333C10.912 182.5 0 171.588 0 158.167V48.6667C0 35.2453 10.912 24.3333 24.3333 24.3333H36.5V6.08333C36.5 2.7375 39.2375 0 42.5833 0ZM146 36.5H24.3333C17.6036 36.5 12.1667 41.937 12.1667 48.6667V60.8333H158.167V48.6667C158.167 41.937 152.73 36.5 146 36.5ZM158.167 73H121.667V97.3333H158.167V73ZM158.167 109.5H121.667V133.833H158.167V109.5ZM158.167 146H121.667V170.333H146C152.73 170.333 158.167 164.896 158.167 158.167V146ZM109.5 133.833V109.5H60.8333V133.833H109.5ZM60.8333 146V170.333H109.5V146H60.8333ZM48.6667 133.833V109.5H12.1667V133.833H48.6667ZM12.1667 146V158.167C12.1667 164.896 17.6036 170.333 24.3333 170.333H48.6667V146H12.1667ZM12.1667 97.3333H48.6667V73H12.1667V97.3333ZM60.8333 97.3333H109.5V73H60.8333V97.3333Z" fill="#EDE8FF"/>
</svg>
