<svg width="183" height="128" viewBox="0 0 183 128" fill="none" xmlns="http://www.w3.org/2000/svg">
<path d="M48.8264 9.12643C43.2364 9.12643 38.1884 12.5203 36.1064 17.7395L24.9551 45.6321H63.8565V9.12643H48.8264ZM72.9829 45.6321H134.586L111.314 14.6023C108.719 11.1514 104.669 9.12643 100.362 9.12643H72.9829V45.6321ZM145.994 45.6321C166.158 45.6321 182.5 61.9741 182.5 82.1378V86.701C182.5 96.7686 174.315 104.954 164.247 104.954H159.57C158.429 117.759 147.677 127.77 134.586 127.77C121.496 127.77 110.743 117.759 109.603 104.954H68.3341C67.1933 117.759 56.4412 127.77 43.3505 127.77C30.2598 127.77 19.5077 117.759 18.3669 104.954H18.2529C8.18526 104.954 0 96.7686 0 86.701V63.885C0 54.9012 6.50258 47.4289 15.0586 45.9173L27.6645 14.3456C31.1154 5.6755 39.5003 0 48.8264 0H100.362C107.549 0 114.308 3.39389 118.615 9.12643L145.994 45.6321ZM110.43 95.8275C113.396 85.3036 123.093 77.5746 134.586 77.5746C146.08 77.5746 155.748 85.3036 158.743 95.8275H164.247C169.295 95.8275 173.374 91.7491 173.374 86.701V82.1378C173.374 67.0222 161.11 54.7586 145.994 54.7586H18.2243C13.1763 54.7586 9.09791 58.8369 9.09791 63.885V86.701C9.09791 91.7491 13.1763 95.8275 18.2243 95.8275H19.1655C22.1316 85.3036 31.8284 77.5746 43.322 77.5746C54.8156 77.5746 64.4839 85.3036 67.4785 95.8275H110.43ZM43.322 118.644C52.1347 118.644 59.2932 111.485 59.2932 102.672C59.2932 93.8596 52.1347 86.701 43.322 86.701C34.5093 86.701 27.3508 93.8596 27.3508 102.672C27.3508 111.485 34.5093 118.644 43.322 118.644ZM150.558 102.672C150.558 93.8596 143.399 86.701 134.586 86.701C125.774 86.701 118.615 93.8596 118.615 102.672C118.615 111.485 125.774 118.644 134.586 118.644C143.399 118.644 150.558 111.485 150.558 102.672Z" fill="#EDE8FF"/>
</svg>
