<svg width="183" height="163" viewBox="0 0 183 163" fill="none" xmlns="http://www.w3.org/2000/svg">
<path d="M81.1111 12.6615V25.323C81.1111 28.1086 78.8299 30.3876 76.0417 30.3876H63.3681C61.974 30.3876 60.8333 31.5272 60.8333 32.9199V48.1138C60.8333 49.5065 61.974 50.6461 63.3681 50.6461H76.0417C78.8299 50.6461 81.1111 52.9251 81.1111 55.7107V68.3722C81.1111 69.765 82.2517 70.9045 83.6458 70.9045H98.8542C100.248 70.9045 101.389 69.765 101.389 68.3722V55.7107C101.389 52.9251 103.67 50.6461 106.458 50.6461H119.132C120.526 50.6461 121.667 49.5065 121.667 48.1138V32.9199C121.667 31.5272 120.526 30.3876 119.132 30.3876H106.458C103.67 30.3876 101.389 28.1086 101.389 25.323V12.6615C101.389 11.2688 100.248 10.1292 98.8542 10.1292H83.6458C82.2517 10.1292 81.1111 11.2688 81.1111 12.6615ZM83.6458 0H98.8542C105.856 0 111.528 5.66603 111.528 12.6615V20.2584H119.132C126.134 20.2584 131.806 25.9245 131.806 32.9199V48.1138C131.806 55.1093 126.134 60.7753 119.132 60.7753H111.528V68.3722C111.528 75.3677 105.856 81.0337 98.8542 81.0337H83.6458C76.6437 81.0337 70.9722 75.3677 70.9722 68.3722V60.7753H63.3681C56.3659 60.7753 50.6944 55.1093 50.6944 48.1138V32.9199C50.6944 25.9245 56.3659 20.2584 63.3681 20.2584H70.9722V12.6615C70.9722 5.66603 76.6437 0 83.6458 0ZM47.8429 100.469C51.9935 97.6836 56.9045 96.2275 61.9106 96.2275H108.993C118.783 96.2275 126.736 104.173 126.736 113.954C126.736 116.676 126.134 119.24 125.025 121.551H126.799L156.804 103.698C159.434 102.147 162.444 101.292 165.517 101.292H165.929C175.086 101.292 182.5 108.699 182.5 117.847C182.5 123.45 179.648 128.673 174.959 131.711L137.065 156.338C131.299 160.073 124.582 162.067 117.738 162.067H5.06944C2.28125 162.067 0 159.788 0 157.003C0 154.217 2.28125 151.938 5.06944 151.938H117.706C122.617 151.938 127.401 150.514 131.52 147.855L169.415 123.228C171.252 122.057 172.329 120 172.329 117.847C172.329 114.302 169.446 111.421 165.898 111.421H165.486C164.25 111.421 163.046 111.77 161.969 112.371L130.76 130.952C129.968 131.427 129.081 131.68 128.162 131.68H81.1111C78.3229 131.68 76.0417 129.401 76.0417 126.615C76.0417 123.83 78.3229 121.551 81.1111 121.551H108.993C113.207 121.551 116.597 118.164 116.597 113.954C116.597 109.744 113.207 106.357 108.993 106.357H61.9106C58.9006 106.357 55.9857 107.243 53.4826 108.921L28.1671 125.761C27.3433 126.33 26.3611 126.615 25.3472 126.615H5.06944C2.28125 126.615 0 124.336 0 121.551C0 118.765 2.28125 116.486 5.06944 116.486H23.8264L47.8429 100.469Z" fill="#EDE8FF"/>
</svg>
