<svg width="183" height="160" viewBox="0 0 183 160" fill="none" xmlns="http://www.w3.org/2000/svg">
<path d="M135.057 11.4062C123.508 11.4062 112.637 16.9668 105.864 26.3413L95.8838 40.1357C94.8145 41.6328 93.1035 42.4883 91.25 42.4883C89.3965 42.4883 87.6855 41.5972 86.6162 40.1357L76.6357 26.3413C69.8633 16.9668 58.9917 11.4062 47.4429 11.4062C27.5176 11.4062 11.4062 27.5532 11.4062 47.4429C11.4062 67.0474 23.668 85.6182 36.999 101.801C52.0054 120.051 70.291 136.02 82.8022 145.608C85.0122 147.319 87.9351 148.281 91.25 148.281C94.5649 148.281 97.4522 147.319 99.6978 145.608C112.209 136.055 130.495 120.051 145.501 101.801C158.796 85.6182 171.094 67.0474 171.094 47.4429C171.094 27.5176 154.947 11.4062 135.057 11.4062ZM96.5967 19.6401C105.508 7.30713 119.837 0 135.057 0C161.256 0 182.5 21.2441 182.5 47.4429C182.5 71.4673 167.672 92.8184 154.305 109.037C138.586 128.142 119.623 144.717 106.613 154.626C102.193 157.977 96.7749 159.652 91.25 159.652C85.7251 159.652 80.2715 158.012 75.8872 154.626C62.877 144.717 43.9141 128.142 28.1948 109.072C14.8281 92.8184 0 71.4673 0 47.4429C0 21.2441 21.2441 0 47.4429 0C62.6631 0 76.9922 7.30713 85.9033 19.6401L91.25 27.0186L96.5967 19.6401Z" fill="#EDE8FF"/>
</svg>
