<svg width="183" height="142" viewBox="0 0 183 142" fill="none" xmlns="http://www.w3.org/2000/svg">
<path d="M162.222 10.1389C167.83 10.1389 172.361 14.6697 172.361 20.2778V121.667C172.361 127.275 167.83 131.806 162.222 131.806H20.2778C14.6697 131.806 10.1389 127.275 10.1389 121.667V20.2778C10.1389 14.6697 14.6697 10.1389 20.2778 10.1389H162.222ZM20.2778 0C9.09332 0 0 9.09332 0 20.2778V121.667C0 132.851 9.09332 141.944 20.2778 141.944H162.222C173.407 141.944 182.5 132.851 182.5 121.667V20.2778C182.5 9.09332 173.407 0 162.222 0H20.2778ZM50.6944 50.6944C50.6944 45.0864 55.2253 40.5556 60.8333 40.5556C66.4414 40.5556 70.9722 45.0864 70.9722 50.6944C70.9722 56.3025 66.4414 60.8333 60.8333 60.8333C55.2253 60.8333 50.6944 56.3025 50.6944 50.6944ZM81.1111 50.6944C81.1111 39.51 72.0178 30.4167 60.8333 30.4167C49.6489 30.4167 40.5556 39.51 40.5556 50.6944C40.5556 61.8789 49.6489 70.9722 60.8333 70.9722C72.0178 70.9722 81.1111 61.8789 81.1111 50.6944ZM35.4861 106.458C35.4861 98.0621 42.2982 91.25 50.6944 91.25H70.9722C79.3685 91.25 86.1806 98.0621 86.1806 106.458C86.1806 109.247 88.4618 111.528 91.25 111.528C94.0382 111.528 96.3194 109.247 96.3194 106.458C96.3194 92.454 84.9766 81.1111 70.9722 81.1111H50.6944C36.6901 81.1111 25.3472 92.454 25.3472 106.458C25.3472 109.247 27.6285 111.528 30.4167 111.528C33.2049 111.528 35.4861 109.247 35.4861 106.458ZM111.528 40.5556C108.74 40.5556 106.458 42.8368 106.458 45.625C106.458 48.4132 108.74 50.6944 111.528 50.6944H152.083C154.872 50.6944 157.153 48.4132 157.153 45.625C157.153 42.8368 154.872 40.5556 152.083 40.5556H111.528ZM111.528 70.9722C108.74 70.9722 106.458 73.2535 106.458 76.0417C106.458 78.8299 108.74 81.1111 111.528 81.1111H152.083C154.872 81.1111 157.153 78.8299 157.153 76.0417C157.153 73.2535 154.872 70.9722 152.083 70.9722H111.528Z" fill="#EDE8FF"/>
</svg>
