<svg width="160" height="183" viewBox="0 0 160 183" fill="none" xmlns="http://www.w3.org/2000/svg">
<path d="M91.25 68.4375H79.8438V11.4062C79.8438 5.09717 74.7466 0 68.4375 0H59.8828C26.8047 0 0 26.8047 0 59.8828V96.9531C0 115.845 15.3271 131.172 34.2188 131.172H102.656C121.548 131.172 136.875 115.845 136.875 96.9531V57.0312H153.984C157.121 57.0312 159.688 54.4648 159.688 51.3281C159.688 48.1914 157.121 45.625 153.984 45.625H131.172C128.035 45.625 125.469 48.1914 125.469 51.3281V68.4375H91.25ZM125.469 79.8438V96.9531C125.469 109.536 115.239 119.766 102.656 119.766H34.2188C21.6362 119.766 11.4062 109.536 11.4062 96.9531V79.8438H125.469ZM68.4375 11.4062V68.4375H11.4062V59.8828C11.4062 33.1138 33.1138 11.4062 59.8828 11.4062H68.4375ZM19.9609 153.984C24.7017 153.984 28.5156 157.798 28.5156 162.539C28.5156 167.28 24.7017 171.094 19.9609 171.094C15.2202 171.094 11.4062 167.28 11.4062 162.539C11.4062 157.798 15.2202 153.984 19.9609 153.984ZM19.9609 182.5C30.9751 182.5 39.9219 173.553 39.9219 162.539C39.9219 151.525 30.9751 142.578 19.9609 142.578C8.94678 142.578 0 151.525 0 162.539C0 173.553 8.94678 182.5 19.9609 182.5ZM116.914 153.984C121.655 153.984 125.469 157.798 125.469 162.539C125.469 167.28 121.655 171.094 116.914 171.094C112.173 171.094 108.359 167.28 108.359 162.539C108.359 157.798 112.173 153.984 116.914 153.984ZM116.914 182.5C127.928 182.5 136.875 173.553 136.875 162.539C136.875 151.525 127.928 142.578 116.914 142.578C105.9 142.578 96.9531 151.525 96.9531 162.539C96.9531 173.553 105.9 182.5 116.914 182.5Z" fill="#EDE8FF"/>
</svg>
